<?xml version="1.0" standalone="no"?>
<!DOCTYPE svg PUBLIC "-//W3C//DTD SVG 20010904//EN"
 "http://www.w3.org/TR/2001/REC-SVG-20010904/DTD/svg10.dtd">
<svg version="1.0" xmlns="http://www.w3.org/2000/svg"
 width="512.000000pt" height="512.000000pt" viewBox="0 0 512.000000 512.000000"
 preserveAspectRatio="xMidYMid meet">
<metadata>
Created by potrace 1.14, written by Peter Selinger 2001-2017
</metadata>
<g transform="translate(0.000000,512.000000) scale(0.100000,-0.100000)"
fill="#000000" stroke="none">
<path d="M2068 5115 c-2 -2 -21 -5 -43 -8 -203 -28 -424 -152 -601 -337 -68
-71 -91 -99 -154 -191 -47 -69 -150 -253 -156 -279 -1 -5 -19 -51 -31 -80 -7
-18 -6 -14 -21 -67 -12 -40 -15 -42 -78 -63 -86 -27 -161 -68 -210 -115 -12
-11 -37 -34 -55 -50 -19 -17 -56 -59 -84 -95 -27 -36 -53 -66 -57 -68 -5 -2
-8 -8 -8 -13 0 -5 -20 -42 -43 -82 -43 -70 -56 -94 -102 -187 -36 -72 -94
-203 -99 -225 -2 -5 -8 -23 -14 -38 -7 -16 -12 -35 -12 -43 0 -8 -4 -14 -8
-14 -4 0 -8 -8 -9 -17 -1 -10 -11 -47 -22 -82 -12 -35 -21 -74 -21 -86 0 -12
-3 -25 -7 -29 -4 -4 -8 -17 -9 -29 -1 -12 -7 -47 -13 -77 -30 -144 -32 -372
-5 -495 4 -16 8 -37 9 -45 1 -8 6 -23 10 -33 4 -10 9 -26 10 -35 1 -10 4 -25
8 -34 16 -41 20 -54 24 -73 2 -10 7 -22 11 -25 8 -6 55 -98 52 -102 -1 -2 14
-21 34 -43 20 -22 34 -45 31 -53 -3 -7 0 -10 6 -7 11 7 59 -39 59 -56 0 -6 4
-8 9 -5 9 6 37 -21 30 -28 -2 -2 -22 -15 -45 -29 -51 -31 -156 -132 -147 -141
3 -3 2 -6 -3 -6 -5 0 -18 -17 -29 -38 -11 -20 -22 -39 -26 -42 -26 -23 -87
-240 -82 -295 4 -41 50 -145 64 -145 5 0 19 -10 32 -22 38 -37 67 -58 77 -58
6 0 10 -4 10 -8 0 -12 182 -112 203 -112 9 0 17 -4 17 -8 0 -5 6 -9 13 -9 19
-2 81 -27 88 -36 3 -5 10 -8 15 -7 8 1 21 -2 57 -15 4 -1 13 -3 20 -4 14 -1
14 -12 4 -291 -4 -108 26 -173 117 -247 56 -47 205 -123 240 -123 9 0 16 -4
16 -9 0 -6 8 -8 18 -7 9 2 28 -1 42 -6 14 -6 37 -12 52 -14 16 -2 43 -6 60 -8
18 -3 33 -5 33 -7 0 -6 234 -4 252 2 13 5 25 4 29 -2 4 -7 10 -6 19 1 8 7 20
8 26 4 7 -4 9 -3 6 3 -6 9 63 29 86 24 4 0 7 4 7 9 0 6 7 10 16 10 8 0 30 11
48 25 18 14 36 22 40 17 4 -4 6 -2 5 3 -2 6 5 25 15 43 9 18 19 57 20 87 2 29
7 58 10 64 4 6 3 11 -1 11 -10 0 -10 41 1 58 4 7 2 12 -4 12 -6 0 -9 4 -5 9 3
5 8 31 11 58 3 26 10 53 15 60 13 15 91 15 82 -1 -5 -8 -3 -8 8 0 8 6 23 9 34
7 28 -6 735 -9 735 -3 0 3 23 6 50 7 38 2 49 -1 43 -10 -4 -7 0 -7 10 2 10 7
43 15 75 17 31 2 57 4 57 4 0 1 16 3 36 4 20 2 42 7 49 11 9 6 11 4 5 -5 -6
-10 -4 -11 6 -4 8 4 19 9 24 10 6 1 28 5 50 8 22 3 53 9 69 12 22 5 27 3 21
-7 -5 -8 1 -6 12 4 13 11 39 18 71 20 27 1 48 5 46 8 -2 4 11 9 29 12 17 3 41
9 51 13 15 6 18 4 12 -7 -5 -10 -4 -10 6 1 7 9 29 21 48 27 76 24 139 50 154
62 8 7 20 10 26 6 5 -3 10 -1 10 4 0 6 6 11 14 11 8 0 16 5 18 10 2 6 13 12
25 13 12 0 20 3 18 5 -6 6 51 52 64 52 6 0 11 6 11 14 0 7 7 19 15 26 23 19
44 100 34 134 -5 16 -10 45 -11 63 -1 19 -6 37 -10 39 -4 3 -8 11 -8 19 0 8
-5 26 -11 42 -6 15 -11 30 -11 33 0 3 -13 24 -29 47 -39 57 -104 119 -140 133
-33 14 -34 35 -1 34 12 0 20 2 17 5 -6 5 83 50 103 50 6 1 12 6 12 12 0 6 7 8
16 5 8 -3 13 -2 10 3 -8 12 22 23 37 14 7 -3 9 -3 5 2 -4 4 14 22 40 39 26 17
56 38 66 48 10 10 24 15 29 11 6 -4 7 -1 3 6 -5 8 0 14 13 18 11 3 18 10 14
16 -4 6 0 8 11 4 9 -4 15 -3 12 2 -3 4 8 20 23 35 19 18 31 24 36 16 4 -6 12
-7 18 -2 7 4 28 9 47 11 44 4 125 24 170 44 40 17 133 101 123 111 -3 3 -2 6
4 6 5 0 10 6 11 13 1 6 4 35 8 63 4 31 2 59 -5 72 -10 19 -7 24 26 46 20 14
40 23 45 20 5 -3 7 0 6 6 -2 7 6 17 16 23 42 26 103 107 89 120 -3 4 -2 7 3 7
15 0 10 126 -6 158 -19 38 -51 72 -67 72 -7 0 -13 3 -14 8 0 4 -2 16 -4 27 -3
11 -6 34 -8 50 -2 17 -6 35 -9 40 -3 6 -9 25 -13 44 -16 74 -124 249 -182 294
-13 10 -20 23 -17 29 4 6 3 8 -3 5 -5 -3 -17 2 -26 13 -15 18 -12 21 53 59 38
23 72 46 75 51 4 6 12 7 18 4 7 -4 9 -4 5 0 -7 9 33 52 45 48 5 -1 6 2 2 8 -3
5 1 13 9 16 9 3 16 11 16 16 0 19 62 88 78 88 30 0 114 50 121 72 1 4 8 22 15
40 8 17 12 37 9 44 -5 14 31 54 49 54 6 0 8 3 5 7 -4 3 1 15 10 25 9 11 19 27
20 36 9 43 9 99 0 122 -5 14 -10 53 -11 86 -2 57 -5 65 -44 105 -23 24 -42 53
-42 64 0 25 -34 82 -63 106 -12 10 -39 26 -59 35 -21 9 -38 21 -38 26 0 17 -3
24 -23 53 -30 41 -55 66 -102 96 -49 32 -125 71 -125 65 0 -3 -21 4 -46 15
-25 11 -58 23 -72 25 -35 7 -49 22 -55 59 -6 38 -44 150 -64 190 -54 104 -146
210 -228 263 -84 54 -135 75 -260 108 -46 12 -232 10 -308 -4 -142 -25 -370
-112 -459 -174 -26 -18 -27 -18 -55 8 -73 68 -289 183 -344 184 -8 0 -20 5
-27 12 -7 7 -12 9 -12 5 0 -3 -11 -2 -26 3 -14 6 -42 12 -62 15 -20 2 -48 7
-62 11 -25 6 -267 14 -272 9z"/>
<path d="M2986 622 c-3 -5 1 -9 9 -9 8 0 12 4 9 9 -3 4 -7 8 -9 8 -2 0 -6 -4
-9 -8z"/>
</g>
</svg>
